<svg xmlns="http://www.w3.org/2000/svg" width="720" height="400" viewBox="0 0 720 400" role="img" aria-labelledby="title desc" font-family="system-ui, -apple-system, &quot;Segoe UI&quot;, sans-serif">
<title id="title">Throughput, unpaced</title>
<desc id="desc">GPU poller (CUDA): 1 -&gt; 3.02, 2 -&gt; 6.03, 3 -&gt; 8.95, 4 -&gt; 11.6, 5 -&gt; 14.3; CPU fallback (host thread): 1 -&gt; 22.5, 2 -&gt; 41.1, 3 -&gt; 59, 4 -&gt; 65.9, 5 -&gt; 75.8</desc>
<rect x="0.5" y="0.5" width="719" height="399" rx="12" fill="#fcfcfb" stroke="rgba(11,11,11,0.10)"/>
<text x="24.0" y="36.0" fill="#0b0b0b" font-size="16" font-weight="600" text-anchor="start">Throughput, unpaced</text>
<text x="24.0" y="58.0" fill="#52514e" font-size="13" font-weight="400" text-anchor="start">Packets delivered per second, 64-entry rings. Both backends scale with queues.</text>
<rect x="24" y="72" width="12" height="12" rx="3" fill="#2a78d6"/>
<text x="42.0" y="82.0" fill="#52514e" font-size="12" font-weight="400" text-anchor="start">GPU poller (CUDA)</text>
<rect x="171.4" y="72" width="12" height="12" rx="3" fill="#eb6834"/>
<text x="189.4" y="82.0" fill="#52514e" font-size="12" font-weight="400" text-anchor="start">CPU fallback (host thread)</text>
<text x="24.0" y="96.0" fill="#898781" font-size="12" font-weight="400" text-anchor="start">Mpps</text>
<line x1="64" y1="348.0" x2="610" y2="348.0" stroke="#c3c2b7" stroke-width="1"/>
<text x="54" y="352.0" fill="#898781" font-size="12" text-anchor="end" style="font-variant-numeric: tabular-nums">0</text>
<line x1="64" y1="289.0" x2="610" y2="289.0" stroke="#e1e0d9" stroke-width="1"/>
<text x="54" y="293.0" fill="#898781" font-size="12" text-anchor="end" style="font-variant-numeric: tabular-nums">20</text>
<line x1="64" y1="230.0" x2="610" y2="230.0" stroke="#e1e0d9" stroke-width="1"/>
<text x="54" y="234.0" fill="#898781" font-size="12" text-anchor="end" style="font-variant-numeric: tabular-nums">40</text>
<line x1="64" y1="171.0" x2="610" y2="171.0" stroke="#e1e0d9" stroke-width="1"/>
<text x="54" y="175.0" fill="#898781" font-size="12" text-anchor="end" style="font-variant-numeric: tabular-nums">60</text>
<line x1="64" y1="112.0" x2="610" y2="112.0" stroke="#e1e0d9" stroke-width="1"/>
<text x="54" y="116.0" fill="#898781" font-size="12" text-anchor="end" style="font-variant-numeric: tabular-nums">80</text>
<text x="88.0" y="368.0" fill="#898781" font-size="12" font-weight="400" text-anchor="middle">1</text>
<text x="212.5" y="368.0" fill="#898781" font-size="12" font-weight="400" text-anchor="middle">2</text>
<text x="337.0" y="368.0" fill="#898781" font-size="12" font-weight="400" text-anchor="middle">3</text>
<text x="461.5" y="368.0" fill="#898781" font-size="12" font-weight="400" text-anchor="middle">4</text>
<text x="586.0" y="368.0" fill="#898781" font-size="12" font-weight="400" text-anchor="middle">5</text>
<text x="337.0" y="388.0" fill="#52514e" font-size="12" font-weight="400" text-anchor="middle">queues</text>
<path d="M88.0,339.1 L212.5,330.2 L337.0,321.6 L461.5,313.7 L586.0,305.9" fill="none" stroke="#2a78d6" stroke-width="2" stroke-linejoin="round" stroke-linecap="round"/>
<circle cx="88.0" cy="339.1" r="4" fill="#2a78d6" stroke="#fcfcfb" stroke-width="2"/>
<circle cx="212.5" cy="330.2" r="4" fill="#2a78d6" stroke="#fcfcfb" stroke-width="2"/>
<circle cx="337.0" cy="321.6" r="4" fill="#2a78d6" stroke="#fcfcfb" stroke-width="2"/>
<circle cx="461.5" cy="313.7" r="4" fill="#2a78d6" stroke="#fcfcfb" stroke-width="2"/>
<circle cx="586.0" cy="305.9" r="4" fill="#2a78d6" stroke="#fcfcfb" stroke-width="2"/>
<text x="598.0" y="309.9" fill="#0b0b0b" font-size="12" font-weight="600" text-anchor="start">14.3 Mpps</text>
<path d="M88.0,281.5 L212.5,226.8 L337.0,174.0 L461.5,153.5 L586.0,124.5" fill="none" stroke="#eb6834" stroke-width="2" stroke-linejoin="round" stroke-linecap="round"/>
<circle cx="88.0" cy="281.5" r="4" fill="#eb6834" stroke="#fcfcfb" stroke-width="2"/>
<circle cx="212.5" cy="226.8" r="4" fill="#eb6834" stroke="#fcfcfb" stroke-width="2"/>
<circle cx="337.0" cy="174.0" r="4" fill="#eb6834" stroke="#fcfcfb" stroke-width="2"/>
<circle cx="461.5" cy="153.5" r="4" fill="#eb6834" stroke="#fcfcfb" stroke-width="2"/>
<circle cx="586.0" cy="124.5" r="4" fill="#eb6834" stroke="#fcfcfb" stroke-width="2"/>
<text x="598.0" y="128.5" fill="#0b0b0b" font-size="12" font-weight="600" text-anchor="start">75.8 Mpps</text>
</svg>
